<?xml version="1.0" encoding="utf-8"?>
<!-- Generator: Adobe Illustrator 21.0.2, SVG Export Plug-In . SVG Version: 6.00 Build 0)  -->
<svg version="1.1" id="Layer_1" xmlns="http://www.w3.org/2000/svg" xmlns:xlink="http://www.w3.org/1999/xlink" x="0px" y="0px"
	 viewBox="0 0 1000 1000" style="enable-background:new 0 0 1000 1000;" xml:space="preserve">
<style type="text/css">
	.st0{fill:#2F4F4F;}
</style>
<g id="Layer_1_1_">
	<title>close-squared-alt</title>
</g>
<g id="Layer_2">
	<path class="st0" d="M905.5,94.5c-21.4-21.3-47.2-32-77.4-32H171.9c-30.2,0-56,10.7-77.4,32s-32,47.2-32,77.3V828
		c0,30.2,10.7,56,32,77.4s47.2,32,77.4,32h656.2c30.2,0,56-10.7,77.4-32c21.4-21.4,32-47.2,32-77.4V171.9
		C937.5,141.7,926.8,115.9,905.5,94.5z M599.4,522l156.2,156.3c3.6,3.5,5.4,8.2,5.4,13.6c0,5.5-1.7,9.9-5.4,13.6l-51.7,50.4
		c-3.6,3.6-7.6,5.4-12.2,5.4c-5.5,0-9.9-1.7-13.6-5.4L523,600.8c-12.8-12.8-33.4-12.8-46.2,0l-155.1,155c-3.6,3.6-7.7,5.4-12.2,5.4
		c-5.5,0-9.9-1.7-13.6-5.4l-51.7-50.4c-3.6-3.5-5.4-8.2-5.4-13.6c0-5.5,1.7-9.9,5.4-13.6l156-154.8c12.9-12.8,12.9-33.7-0.1-46.5
		L244.2,323.2c-9-9-9-18.2,0-27.2l47.2-48.6c2.8-2.8,5.8-5.1,9.4-6.7c2.7-1.2,5.2-1.9,7.3-1.9c5.5,0,9.9,1.7,13.6,5.4l155.2,154
		c12.7,12.7,33.3,12.7,46,0l152.5-151c2.3-2.4,5-4.3,7.9-5.8c3.3-1.6,6.1-2.4,8.5-2.4c5.5,0,9.9,1.7,13.6,5.4l50.4,51.7
		c9,9,9,17.7,0,25.8L599.7,475.6C586.7,488.3,586.6,509.2,599.4,522z"/>
</g>
</svg>
