<?xml version="1.0" encoding="utf-8"?>
<!-- Generator: Adobe Illustrator 21.0.2, SVG Export Plug-In . SVG Version: 6.00 Build 0)  -->
<svg version="1.1" id="Layer_1" xmlns="http://www.w3.org/2000/svg" xmlns:xlink="http://www.w3.org/1999/xlink" x="0px" y="0px"
	 viewBox="0 0 1000 1000" style="enable-background:new 0 0 1000 1000;" xml:space="preserve">
<style type="text/css">
	.st0{fill:#2F4F4F;}
</style>
<title>external</title>
<path class="st0" d="M872.7,62.9H127.3c-36,0-64.8,29.2-64.8,64.8v744.4c0,35.6,28.8,64.8,64.8,64.8h745.4c36,0,64.8-29.2,64.8-64.8
	V127.7C937.5,92.1,908.7,62.9,872.7,62.9z M806.6,557.9H724c-8.1,0-14.9-6.8-14.9-14.9V416.4c0-8.4-4.5-10.4-10.4-4.5L488.8,621.8
	c-5.8,5.8-15.2,5.8-21.1,0l-84.6-84.9c-5.8-5.8-5.8-15.2,0-21.1l209.3-209.3c5.8-5.8,3.9-10.7-4.2-10.7h-126
	c-8.1,0-14.9-6.5-14.9-14.6v-82.6c0-8.1,6.8-14.9,14.9-14.9h343.1c8.9,0,16.2,7.3,16.2,16.2V543
	C821.5,551.1,814.7,557.9,806.6,557.9z"/>
</svg>
