<?xml version="1.0" encoding="utf-8"?>
<!-- Generator: Adobe Illustrator 21.0.2, SVG Export Plug-In . SVG Version: 6.00 Build 0)  -->
<svg version="1.1" id="Layer_1" xmlns="http://www.w3.org/2000/svg" xmlns:xlink="http://www.w3.org/1999/xlink" x="0px" y="0px"
	 viewBox="0 0 1000 1000" style="enable-background:new 0 0 1000 1000;" xml:space="preserve">
<style type="text/css">
	.st0{fill:#2F4F4F;}
</style>
<title>minus-square</title>
<path class="st0" d="M865.3,62.5H134.7c-40.1,0-72.2,32.5-72.2,72.2v730.7c0,39.7,32.1,72.2,72.2,72.2h730.7
	c39.7,0,72.2-32.5,72.2-72.2V134.7C937.5,95,905,62.5,865.3,62.5L865.3,62.5z M801.8,529c-0.7,9-2.2,19.1-4.7,30.3H203.2
	c-2.5-11.2-4.3-21.6-5.1-31.4c-0.7-9.7-1.1-19.8-1.1-30.3c0-9,0.4-18,1.1-26.7c0.7-9,2.5-19.1,5.1-30.3h593.9
	c2.5,11.2,4,21.6,4.7,31.4c1.1,9.7,1.4,19.8,1.4,30.3C803.3,511.4,802.9,520,801.8,529L801.8,529z"/>
</svg>
